<?xml version="1.0" standalone="no"?>
<!DOCTYPE svg PUBLIC "-//W3C//DTD SVG 20010904//EN"
 "http://www.w3.org/TR/2001/REC-SVG-20010904/DTD/svg10.dtd">
<svg version="1.0" xmlns="http://www.w3.org/2000/svg"
 width="139.000000pt" height="183.000000pt" viewBox="0 0 139.000000 183.000000"
 preserveAspectRatio="xMidYMid meet">

<g transform="translate(0.000000,183.000000) scale(0.100000,-0.100000)"
fill="#000000" stroke="none">
<path d="M150 1702 c-73 -36 -70 -3 -70 -795 0 -770 -1 -754 56 -792 28 -19
52 -20 535 -23 560 -3 566 -2 606 57 l23 34 0 721 c0 706 -1 722 -20 754 -38
62 -37 62 -592 62 -459 0 -506 -2 -538 -18z m344 -148 c14 -5 16 -47 16 -363
0 -196 -4 -362 -8 -369 -7 -9 -39 -12 -128 -10 l-119 3 -3 364 c-2 285 1 366
10 373 15 9 209 11 232 2z m310 0 c14 -5 16 -47 16 -369 0 -322 -2 -364 -16
-369 -30 -11 -219 -7 -232 6 -17 17 -17 709 0 726 13 13 202 17 232 6z m324
-6 c17 -17 17 -709 0 -726 -8 -8 -50 -12 -125 -12 -101 0 -113 2 -123 19 -6
13 -10 143 -10 356 0 213 4 343 10 356 10 17 22 19 123 19 75 0 117 -4 125
-12z m0 -870 c9 -9 12 -70 12 -215 0 -190 -1 -203 -19 -213 -13 -6 -166 -10
-430 -10 -402 0 -411 0 -432 21 -19 19 -20 29 -17 215 2 160 6 196 18 204 24
15 853 13 868 -2z"/>
<path d="M346 1424 c-20 -19 -20 -24 0 -52 26 -37 74 -23 74 23 0 42 -44 59
-74 29z"/>
<path d="M345 990 c-27 -30 -7 -70 35 -70 42 0 62 40 35 70 -10 11 -26 20 -35
20 -9 0 -25 -9 -35 -20z"/>
<path d="M662 1428 c-15 -15 -15 -51 0 -66 18 -18 43 -15 63 8 37 41 -24 97
-63 58z"/>
<path d="M655 986 c-23 -34 -5 -66 36 -66 41 0 61 40 34 70 -24 27 -51 25 -70
-4z"/>
<path d="M970 1425 c-7 -8 -10 -25 -6 -39 11 -45 71 -45 82 0 8 30 -11 54 -41
54 -12 0 -28 -7 -35 -15z"/>
<path d="M978 999 c-26 -15 -23 -65 3 -80 33 -17 69 3 69 39 0 46 -32 65 -72
41z"/>
<path d="M529 489 c-8 -16 -8 -28 0 -45 10 -24 12 -24 161 -24 l150 0 12 26
c9 18 9 30 1 42 -9 14 -33 17 -161 20 -146 2 -151 2 -163 -19z"/>
</g>
</svg>
