<?xml version="1.0" encoding="UTF-8" standalone="no" ?>
<!DOCTYPE svg PUBLIC "-//W3C//DTD SVG 1.1//EN" "http://www.w3.org/Graphics/SVG/1.1/DTD/svg11.dtd">
<svg xmlns="http://www.w3.org/2000/svg" xmlns:xlink="http://www.w3.org/1999/xlink" version="1.1" width="174" height="229" viewBox="356.62 334.97 174 229" xml:space="preserve">
<desc>Created with Fabric.js 5.2.4</desc>
<defs>
</defs>
<rect x="0" y="0" width="100%" height="100%" fill="transparent"></rect>
<g transform="matrix(Infinity NaN NaN Infinity 0 0)" id="2ad235bb-27c8-46ad-a9ac-8d2b323c474b"  >
</g>
<g transform="matrix(1 0 0 1 87 114.5)" id="170ed5e6-e416-4b3c-84a4-b53279efdf7c"  >
<rect style="stroke: none; stroke-width: 1; stroke-dasharray: none; stroke-linecap: butt; stroke-dashoffset: 0; stroke-linejoin: miter; stroke-miterlimit: 4; fill: rgb(255,255,255); fill-rule: nonzero; opacity: 1; visibility: hidden;" vector-effect="non-scaling-stroke"  x="-87" y="-114.5" rx="0" ry="0" width="174" height="229" />
</g>
<g transform="matrix(0 0 NaN NaN 123.91 0)"  >
<g style=""   >
</g>
</g>
<g transform="matrix(0.16 0 0 0.16 210.91 263.71)"  >
<g style="" vector-effect="non-scaling-stroke"   >
		<g transform="matrix(0.13 0 0 -0.13 -2.03 -2.71)"  >
<path style="stroke: none; stroke-width: 1; stroke-dasharray: none; stroke-linecap: butt; stroke-dashoffset: 0; stroke-linejoin: miter; stroke-miterlimit: 4; fill: rgb(255,255,255); fill-rule: nonzero; opacity: 1;" vector-effect="non-scaling-stroke"  transform=" translate(-689.99, -905.54)" d="M 150 1702 C 77 1666 80 1699 80 907 C 80 137 79 153 136 115 C 164 96 188 95 671 92 C 1231 89 1237 90 1277 149 L 1300 183 L 1300 904 C 1300 1610 1299 1626 1280 1658 C 1242 1720 1243 1720 688 1720 C 229 1720 182 1718 150 1702 z M 494 1554 C 508 1549 510 1507 510 1191 C 510 995 506 829 502 822 C 495 813 463 810 374 812 L 255 815 L 252 1179 C 250 1464 253 1545 262 1552 C 277 1561 471 1563 494 1554 z M 804 1554 C 818 1549 820 1507 820 1185 C 820 863 818 821 804 816 C 774 805 585 809 572 822 C 555 839 555 1531 572 1548 C 585 1561 774 1565 804 1554 z M 1128 1548 C 1145 1531 1145 839 1128 822 C 1120 814 1078 810 1003 810 C 902 810 890 812 880 829 C 874 842 870 972 870 1185 C 870 1398 874 1528 880 1541 C 890 1558 902 1560 1003 1560 C 1078 1560 1120 1556 1128 1548 z M 1128 678 C 1137 669 1140 608 1140 463 C 1140 273 1139 260 1121 250 C 1108 244 955 240 691 240 C 289 240 280 240 259 261 C 240 280 239 290 242 476 C 244 636 248 672 260 680 C 284 695 1113 693 1128 678 z" stroke-linecap="round" />
</g>
		<g transform="matrix(0.13 0 0 -0.13 -42.08 -65.41)"  >
<path style="stroke: none; stroke-width: 1; stroke-dasharray: none; stroke-linecap: butt; stroke-dashoffset: 0; stroke-linejoin: miter; stroke-miterlimit: 4; fill: rgb(255,255,255); fill-rule: nonzero; opacity: 1;" vector-effect="non-scaling-stroke"  transform=" translate(-375.5, -1395.01)" d="M 346 1424 C 326 1405 326 1400 346 1372 C 372 1335 420 1349 420 1395 C 420 1437 376 1454 346 1424 z" stroke-linecap="round" />
</g>
		<g transform="matrix(0.13 0 0 -0.13 -41.49 -8.08)"  >
<path style="stroke: none; stroke-width: 1; stroke-dasharray: none; stroke-linecap: butt; stroke-dashoffset: 0; stroke-linejoin: miter; stroke-miterlimit: 4; fill: rgb(255,255,255); fill-rule: nonzero; opacity: 1;" vector-effect="non-scaling-stroke"  transform=" translate(-380, -965)" d="M 345 990 C 318 960 338 920 380 920 C 422 920 442 960 415 990 C 405 1001 389 1010 380 1010 C 371 1010 355 1001 345 990 z" stroke-linecap="round" />
</g>
		<g transform="matrix(0.13 0 0 -0.13 0.34 -65.52)"  >
<path style="stroke: none; stroke-width: 1; stroke-dasharray: none; stroke-linecap: butt; stroke-dashoffset: 0; stroke-linejoin: miter; stroke-miterlimit: 4; fill: rgb(255,255,255); fill-rule: nonzero; opacity: 1;" vector-effect="non-scaling-stroke"  transform=" translate(-693.61, -1395.77)" d="M 662 1428 C 647 1413 647 1377 662 1362 C 680 1344 705 1347 725 1370 C 762 1411 701 1467 662 1428 z" stroke-linecap="round" />
</g>
		<g transform="matrix(0.13 0 0 -0.13 0 -8.01)"  >
<path style="stroke: none; stroke-width: 1; stroke-dasharray: none; stroke-linecap: butt; stroke-dashoffset: 0; stroke-linejoin: miter; stroke-miterlimit: 4; fill: rgb(255,255,255); fill-rule: nonzero; opacity: 1;" vector-effect="non-scaling-stroke"  transform=" translate(-691.11, -964.53)" d="M 655 986 C 632 952 650 920 691 920 C 732 920 752 960 725 990 C 701 1017 674 1015 655 986 z" stroke-linecap="round" />
</g>
		<g transform="matrix(0.13 0 0 -0.13 41.87 -65.56)"  >
<path style="stroke: none; stroke-width: 1; stroke-dasharray: none; stroke-linecap: butt; stroke-dashoffset: 0; stroke-linejoin: miter; stroke-miterlimit: 4; fill: rgb(255,255,255); fill-rule: nonzero; opacity: 1;" vector-effect="non-scaling-stroke"  transform=" translate(-1005.02, -1396.13)" d="M 970 1425 C 963 1417 960 1400 964 1386 C 975 1341 1035 1341 1046 1386 C 1054 1416 1035 1440 1005 1440 C 993 1440 977 1433 970 1425 z" stroke-linecap="round" />
</g>
		<g transform="matrix(0.13 0 0 -0.13 41.84 -7.57)"  >
<path style="stroke: none; stroke-width: 1; stroke-dasharray: none; stroke-linecap: butt; stroke-dashoffset: 0; stroke-linejoin: miter; stroke-miterlimit: 4; fill: rgb(255,255,255); fill-rule: nonzero; opacity: 1;" vector-effect="non-scaling-stroke"  transform=" translate(-1004.97, -961.14)" d="M 978 999 C 952 984 955 934 981 919 C 1014 902 1050 922 1050 958 C 1050 1004 1018 1023 978 999 z" stroke-linecap="round" />
</g>
		<g transform="matrix(0.13 0 0 -0.13 -0.44 58.66)"  >
<path style="stroke: none; stroke-width: 1; stroke-dasharray: none; stroke-linecap: butt; stroke-dashoffset: 0; stroke-linejoin: miter; stroke-miterlimit: 4; fill: rgb(255,255,255); fill-rule: nonzero; opacity: 1;" vector-effect="non-scaling-stroke"  transform=" translate(-690.94, -464.42)" d="M 529 489 C 521 473 521 461 529 444 C 539 420 541 420 690 420 L 840 420 L 852 446 C 861 464 861 476 853 488 C 844 502 820 505 692 508 C 546 510 541 510 529 489 z" stroke-linecap="round" />
</g>
</g>
</g>
<g transform="matrix(1 0 0 1 443 447.83)"  >
<g style="" vector-effect="non-scaling-stroke"   >
		<g transform="matrix(1 0 0 1 0 0)"  >
<rect style="stroke: none; stroke-width: 1; stroke-dasharray: none; stroke-linecap: butt; stroke-dashoffset: 0; stroke-linejoin: miter; stroke-miterlimit: 4; fill: rgb(255,255,255); fill-rule: nonzero; opacity: 1; visibility: hidden;" vector-effect="non-scaling-stroke"  x="-540" y="-540" rx="0" ry="0" width="1080" height="1080" />
</g>
		<g transform="matrix(0.13 0 0 -0.13 0 0)"  >
<path style="stroke: none; stroke-width: 1; stroke-dasharray: none; stroke-linecap: butt; stroke-dashoffset: 0; stroke-linejoin: miter; stroke-miterlimit: 4; fill: rgb(255,255,255); fill-rule: nonzero; opacity: 1;" vector-effect="non-scaling-stroke"  transform=" translate(-689.99, -905.54)" d="M 150 1702 C 77 1666 80 1699 80 907 C 80 137 79 153 136 115 C 164 96 188 95 671 92 C 1231 89 1237 90 1277 149 L 1300 183 L 1300 904 C 1300 1610 1299 1626 1280 1658 C 1242 1720 1243 1720 688 1720 C 229 1720 182 1718 150 1702 z M 494 1554 C 508 1549 510 1507 510 1191 C 510 995 506 829 502 822 C 495 813 463 810 374 812 L 255 815 L 252 1179 C 250 1464 253 1545 262 1552 C 277 1561 471 1563 494 1554 z M 804 1554 C 818 1549 820 1507 820 1185 C 820 863 818 821 804 816 C 774 805 585 809 572 822 C 555 839 555 1531 572 1548 C 585 1561 774 1565 804 1554 z M 1128 1548 C 1145 1531 1145 839 1128 822 C 1120 814 1078 810 1003 810 C 902 810 890 812 880 829 C 874 842 870 972 870 1185 C 870 1398 874 1528 880 1541 C 890 1558 902 1560 1003 1560 C 1078 1560 1120 1556 1128 1548 z M 1128 678 C 1137 669 1140 608 1140 463 C 1140 273 1139 260 1121 250 C 1108 244 955 240 691 240 C 289 240 280 240 259 261 C 240 280 239 290 242 476 C 244 636 248 672 260 680 C 284 695 1113 693 1128 678 z" stroke-linecap="round" />
</g>
		<g transform="matrix(0.13 0 0 -0.13 -41.93 -65.26)"  >
<path style="stroke: none; stroke-width: 1; stroke-dasharray: none; stroke-linecap: butt; stroke-dashoffset: 0; stroke-linejoin: miter; stroke-miterlimit: 4; fill: rgb(255,255,255); fill-rule: nonzero; opacity: 1;" vector-effect="non-scaling-stroke"  transform=" translate(-375.5, -1395.01)" d="M 346 1424 C 326 1405 326 1400 346 1372 C 372 1335 420 1349 420 1395 C 420 1437 376 1454 346 1424 z" stroke-linecap="round" />
</g>
		<g transform="matrix(0.13 0 0 -0.13 -41.33 -7.93)"  >
<path style="stroke: none; stroke-width: 1; stroke-dasharray: none; stroke-linecap: butt; stroke-dashoffset: 0; stroke-linejoin: miter; stroke-miterlimit: 4; fill: rgb(255,255,255); fill-rule: nonzero; opacity: 1;" vector-effect="non-scaling-stroke"  transform=" translate(-380, -965)" d="M 345 990 C 318 960 338 920 380 920 C 422 920 442 960 415 990 C 405 1001 389 1010 380 1010 C 371 1010 355 1001 345 990 z" stroke-linecap="round" />
</g>
		<g transform="matrix(0.13 0 0 -0.13 0.48 -65.36)"  >
<path style="stroke: none; stroke-width: 1; stroke-dasharray: none; stroke-linecap: butt; stroke-dashoffset: 0; stroke-linejoin: miter; stroke-miterlimit: 4; fill: rgb(255,255,255); fill-rule: nonzero; opacity: 1;" vector-effect="non-scaling-stroke"  transform=" translate(-693.61, -1395.77)" d="M 662 1428 C 647 1413 647 1377 662 1362 C 680 1344 705 1347 725 1370 C 762 1411 701 1467 662 1428 z" stroke-linecap="round" />
</g>
		<g transform="matrix(0.13 0 0 -0.13 0.15 -7.87)"  >
<path style="stroke: none; stroke-width: 1; stroke-dasharray: none; stroke-linecap: butt; stroke-dashoffset: 0; stroke-linejoin: miter; stroke-miterlimit: 4; fill: rgb(255,255,255); fill-rule: nonzero; opacity: 1;" vector-effect="non-scaling-stroke"  transform=" translate(-691.11, -964.53)" d="M 655 986 C 632 952 650 920 691 920 C 732 920 752 960 725 990 C 701 1017 674 1015 655 986 z" stroke-linecap="round" />
</g>
		<g transform="matrix(0.13 0 0 -0.13 42 -65.41)"  >
<path style="stroke: none; stroke-width: 1; stroke-dasharray: none; stroke-linecap: butt; stroke-dashoffset: 0; stroke-linejoin: miter; stroke-miterlimit: 4; fill: rgb(255,255,255); fill-rule: nonzero; opacity: 1;" vector-effect="non-scaling-stroke"  transform=" translate(-1005.02, -1396.13)" d="M 970 1425 C 963 1417 960 1400 964 1386 C 975 1341 1035 1341 1046 1386 C 1054 1416 1035 1440 1005 1440 C 993 1440 977 1433 970 1425 z" stroke-linecap="round" />
</g>
		<g transform="matrix(0.13 0 0 -0.13 42 -7.41)"  >
<path style="stroke: none; stroke-width: 1; stroke-dasharray: none; stroke-linecap: butt; stroke-dashoffset: 0; stroke-linejoin: miter; stroke-miterlimit: 4; fill: rgb(255,255,255); fill-rule: nonzero; opacity: 1;" vector-effect="non-scaling-stroke"  transform=" translate(-1004.97, -961.14)" d="M 978 999 C 952 984 955 934 981 919 C 1014 902 1050 922 1050 958 C 1050 1004 1018 1023 978 999 z" stroke-linecap="round" />
</g>
		<g transform="matrix(0.13 0 0 -0.13 0.13 58.82)"  >
<path style="stroke: none; stroke-width: 1; stroke-dasharray: none; stroke-linecap: butt; stroke-dashoffset: 0; stroke-linejoin: miter; stroke-miterlimit: 4; fill: rgb(255,255,255); fill-rule: nonzero; opacity: 1;" vector-effect="non-scaling-stroke"  transform=" translate(-690.94, -464.42)" d="M 529 489 C 521 473 521 461 529 444 C 539 420 541 420 690 420 L 840 420 L 852 446 C 861 464 861 476 853 488 C 844 502 820 505 692 508 C 546 510 541 510 529 489 z" stroke-linecap="round" />
</g>
</g>
</g>
</svg>